<svg width="166" height="49" viewBox="0 0 166 49" fill="none" xmlns="http://www.w3.org/2000/svg">
<g clip-path="url(#clip0_1613_1669)">
<rect width="166" height="49" fill="#07043B"/>
<path fill-rule="evenodd" clip-rule="evenodd" d="M0 14.13V14.253L27.95 27.383L56 14.209V14.176L27.95 1L0 14.13ZM10.077 14.192L27.95 5.795L45.827 14.192L27.95 22.588L10.077 14.192ZM27.95 32.483L0 19.55V24.334L27.95 37.298L56 24.289V19.505L27.95 32.483ZM27.95 42.186L0 29.25V34.033L27.95 47L56 33.99V29.206L27.95 42.186Z" fill="#BDBAFA"/>
<mask id="mask0_1613_1669" style="mask-type:luminance" maskUnits="userSpaceOnUse" x="72" y="0" width="94" height="49">
<path d="M72.0156 0.0292969H165.976V48.3193H72.0166L72.0156 0.0292969Z" fill="white"/>
</mask>
<g mask="url(#mask0_1613_1669)">
<path fill-rule="evenodd" clip-rule="evenodd" d="M159.561 24.1503C159.577 22.0851 158.804 20.0916 157.4 18.5773C156.739 17.8692 155.943 17.3003 155.06 16.9043C154.164 16.5024 153.192 16.2975 152.21 16.3033C151.2 16.3033 150.249 16.5033 149.358 16.9043C148.474 17.3003 147.678 17.8691 147.018 18.5773C145.613 20.0921 144.841 22.0859 144.858 24.1513C144.841 26.2164 145.614 28.2098 147.018 29.7243C147.678 30.4322 148.474 31.0007 149.358 31.3963C150.254 31.7987 151.226 32.004 152.209 31.9983C153.219 31.9983 154.169 31.7983 155.061 31.3963C155.944 31.0005 156.739 30.4321 157.4 29.7243C158.804 28.2097 159.578 26.2158 159.561 24.1503ZM165.976 24.1503C165.976 26.0823 165.619 27.8733 164.906 29.5233C164.221 31.1319 163.221 32.5872 161.966 33.8033C160.719 35.0083 159.256 35.9593 157.578 36.6573C155.9 37.3563 154.11 37.7053 152.209 37.7053C150.309 37.7053 148.526 37.3563 146.863 36.6573C145.238 35.9843 143.756 35.0082 142.497 33.7813C141.244 32.5544 140.245 31.0925 139.557 29.4793C138.844 27.8293 138.487 26.0533 138.487 24.1503C138.487 22.2773 138.851 20.5163 139.579 18.8663C140.283 17.2501 141.288 15.7824 142.541 14.5413C143.796 13.3027 145.279 12.3187 146.908 11.6433C148.586 10.9417 150.389 10.5853 152.209 10.5953C154.11 10.5953 155.899 10.9453 157.578 11.6433C159.256 12.3413 160.718 13.2933 161.966 14.4973C163.214 15.7013 164.194 17.1353 164.906 18.7993C165.619 20.4643 165.976 22.2483 165.976 24.1503ZM136.259 36.9033C135.709 37.1565 135.134 37.3509 134.544 37.4833C133.906 37.6313 133.244 37.7053 132.562 37.7053C131.635 37.7087 130.713 37.5811 129.822 37.3263C128.976 37.0904 128.193 36.6719 127.527 36.1003C126.874 35.5353 126.354 34.8003 125.967 33.8933C125.582 32.9863 125.389 31.8933 125.389 30.6163V0.0273438H131.938V29.5013C131.938 30.5713 132.153 31.3073 132.584 31.7083C133.014 32.1093 133.527 32.3103 134.121 32.3103C134.863 32.3103 135.576 32.0873 136.259 31.6413V36.9033ZM122.493 11.2183L110.909 41.8523C110.048 44.1413 108.919 45.7913 107.523 46.8023C106.127 47.8123 104.463 48.3173 102.533 48.3173C102.236 48.3173 101.91 48.2953 101.553 48.2513C101.207 48.2087 100.864 48.1416 100.528 48.0503L98.3896 42.0753C98.8902 42.3114 99.4127 42.498 99.9496 42.6323C100.484 42.7663 100.989 42.8333 101.464 42.8333C102.474 42.8333 103.394 42.6033 104.226 42.1423C105.058 41.6823 105.696 40.8273 106.142 39.5783L107.033 36.9923L97.0976 11.2193H104.093L110.018 27.8073L115.588 11.2193L122.493 11.2183ZM95.5386 7.34034H78.7866V15.6343H95.3156V21.2523H78.7856V37.0363H72.0156V1.41034H95.5396L95.5386 7.34034Z" fill="white"/>
</g>
</g>
<defs>
<clipPath id="clip0_1613_1669">
<rect width="166" height="49" fill="white"/>
</clipPath>
</defs>
</svg>
